<svg xmlns="http://www.w3.org/2000/svg" id="Layer_1" enable-background="new 0 0 64 64" viewBox="0 0 64 64"><path fill="#ccc" d="M59.1,63.89H4.9c-2.71,0-4.9-2.19-4.9-4.9V5.01c0-2.71,2.19-4.9,4.9-4.9h54.2c2.71,0,4.9,2.19,4.9,4.9
				v53.98C64,61.7,61.81,63.89,59.1,63.89z"/><path fill="#f4f4f4" d="M4.5,56.51V14.17c0-1.59,1.29-2.88,2.88-2.88h49.24c1.59,0,2.88,1.29,2.88,2.88v42.34
				c0,1.59-1.29,2.88-2.88,2.88H7.38C5.79,59.39,4.5,58.1,4.5,56.51z"/><circle cx="6.89" cy="4.9" r="1.59" fill="#cc584c"/><path fill="#ffd464" d="M13.36,4.9c0,0.88-0.71,1.59-1.59,1.59c-0.88,0-1.59-0.71-1.59-1.59c0-0.88,0.71-1.59,1.59-1.59
					C12.65,3.31,13.36,4.02,13.36,4.9z"/><circle cx="16.66" cy="4.9" r="1.59" fill="#1a7d57"/><path fill="#f4f4f4" d="M58.07,6.49H21.43c-0.35,0-0.63-0.28-0.63-0.63V3.94c0-0.35,0.28-0.63,0.63-0.63h36.64
					c0.35,0,0.63,0.28,0.63,0.63v1.91C58.7,6.21,58.42,6.49,58.07,6.49z"/><g><circle cx="32" cy="35.34" r="15.07" fill="#d85446"/><path fill="#e9e9e9" d="M24.91,42.43L24.91,42.43c-0.67-0.67-0.67-1.75,0-2.42l11.76-11.76c0.67-0.67,1.75-0.67,2.42,0l0,0
				c0.67,0.67,0.67,1.75,0,2.42L27.33,42.43C26.66,43.1,25.58,43.1,24.91,42.43z"/><path fill="#e9e9e9" d="M39.09,42.43L39.09,42.43c-0.67,0.67-1.75,0.67-2.42,0L24.91,30.67c-0.67-0.67-0.67-1.75,0-2.42l0,0
				c0.67-0.67,1.75-0.67,2.42,0l11.76,11.76C39.76,40.68,39.76,41.76,39.09,42.43z"/></g></svg>