<svg xmlns="http://www.w3.org/2000/svg" viewBox="0 0 64 64"><g data-name="Error"><path fill="#222" d="M42.233 57.161A17.658 17.658 0 1 1 59.891 39.5 17.679 17.679 0 0 1 42.233 57.161zm0-32.316A14.658 14.658 0 1 0 56.891 39.5 14.674 14.674 0 0 0 42.233 24.845zM36.512 20.525H5.609a1.5 1.5 0 0 1-1.5-1.5v-8.3A3.891 3.891 0 0 1 8 6.839H34.126a3.89 3.89 0 0 1 3.886 3.886v8.3A1.5 1.5 0 0 1 36.512 20.525zm-29.4-3h27.9v-6.8a.887.887 0 0 0-.886-.886H8a.887.887 0 0 0-.886.886z"/><path fill="#222" d="M10.859 15.18A1.474 1.474 0 0 1 9.8 14.74a1.5 1.5 0 0 1-.441-1.06A1.515 1.515 0 0 1 9.8 12.62a1.548 1.548 0 0 1 2.12 0 1.513 1.513 0 0 1 .439 1.06 1.426 1.426 0 0 1-.109.58 1.594 1.594 0 0 1-.33.48 1.554 1.554 0 0 1-.481.329A1.628 1.628 0 0 1 10.859 15.18zM29.4 31.2H5.61a1.5 1.5 0 0 1-1.5-1.5V19.02a1.5 1.5 0 0 1 1.5-1.5h30.9a1.5 1.5 0 0 1 1.5 1.5V24.4a1.5 1.5 0 0 1-3 0V20.52H7.11V28.2H29.4a1.5 1.5 0 0 1 0 3z"/><path fill="#222" d="M10.859 25.859a1.5 1.5 0 0 1-1.5-1.5 1.526 1.526 0 0 1 .031-.3 1.8 1.8 0 0 1 .089-.28.887.887 0 0 1 .141-.25.97.97 0 0 1 .18-.23 2.118 2.118 0 0 1 .23-.191 2.21 2.21 0 0 1 .26-.139 2.153 2.153 0 0 1 .279-.08 1.489 1.489 0 0 1 1.351.41 1 1 0 0 1 .189.23 1.777 1.777 0 0 1 .141.25 1.715 1.715 0 0 1 .08.28 1.522 1.522 0 0 1 .029.3 1.458 1.458 0 0 1-.439 1.061A1.5 1.5 0 0 1 10.859 25.859zM26.1 41.88H7.99a3.89 3.89 0 0 1-3.88-3.89V29.7a1.509 1.509 0 0 1 1.5-1.51h23.8a1.5 1.5 0 0 1 0 3H7.11v6.8a.887.887 0 0 0 .88.89H26.1a1.5 1.5 0 0 1 0 3z"/><path fill="#222" d="M10.859 36.54A1.516 1.516 0 0 1 9.8 36.1a1.445 1.445 0 0 1-.321-.491 1.38 1.38 0 0 1-.12-.569A1.5 1.5 0 0 1 9.8 33.979a2.223 2.223 0 0 1 .23-.189 2.08 2.08 0 0 1 .26-.141.931.931 0 0 1 .279-.08 1.507 1.507 0 0 1 .591 0 1 1 0 0 1 .279.08 1.948 1.948 0 0 1 .25.141 1.468 1.468 0 0 1 .231.189 1.484 1.484 0 0 1 .439 1.061 1.573 1.573 0 0 1-.109.569 1.619 1.619 0 0 1-.33.491 1.389 1.389 0 0 1-.481.32A1.428 1.428 0 0 1 10.859 36.54zM42.229 47.78a1.516 1.516 0 0 1-1.059-.44 1.5 1.5 0 0 1-.441-1.06A1.491 1.491 0 0 1 42.81 44.9a1.616 1.616 0 0 1 .259.131 1.908 1.908 0 0 1 .221.19 1.519 1.519 0 0 1 .439 1.06 1.457 1.457 0 0 1-.439 1.06 1.424 1.424 0 0 1-1.061.44zM42.233 42.779a1.5 1.5 0 0 1-1.5-1.5V32.726a1.5 1.5 0 0 1 3 0v8.553A1.5 1.5 0 0 1 42.233 42.779z"/></g></svg>